# xmcd
#
# Track frame offsets:
#	150
#	12587
#	25000
#	37960
#	49780
#	61335
#	73002
#	85110
#	96840
#	109085
#	121677
#	133452
#	145800
#	158167
#	170982
#	184480
#	196607
#	208002
#	220807
#	233610
#	245285
#	256920
#	269110
#
# Disc length: 3760 seconds
#
# Revision: 0
# Processed by: cddbd v1.5.2PL0 Copyright (c) Steve Scherf et al.
# Submitted via: audiograbber 1.83.01
#
DISCID=4f0eae17
DTITLE=Brownie McGhee - The Complete Brownie McGhee [CD1]
DYEAR=1994
DGENRE=Blues
TTITLE0=Picking My Tomatoes
TTITLE1=Me And My Dog Blues
TTITLE2=Born For Bad Luck
TTITLE3=I'm Callin' Daisy
TTITLE4=Step It Up And Go
TTITLE5=My Barkin' Bulldog Blues
TTITLE6=Let Me Tell You 'Bout My Baby
TTITLE7=Prison Woman Blues
TTITLE8=Back Door Stranger
TTITLE9=Be Good To Me
TTITLE10=Not Guilty Blues
TTITLE11=Coal Miner Blues
TTITLE12=Step It And Go No. 2
TTITLE13=Money Spending Woman
TTITLE14=Death Of Blind Boy Fuller #1
TTITLE15=Death Of Blind Boy Fuller #2
TTITLE16=Got To Find My Little Woman
TTITLE17=I'm A Black Woman's Man #1
TTITLE18=I'm A Black Womans' Man #2
TTITLE19=Dealing With The Devil
TTITLE20=Double Trouble #1
TTITLE21=Double Trouble #2
TTITLE22=Woman, I'm Done
EXTD=
EXTT0=
EXTT1=
EXTT2=
EXTT3=
EXTT4=
EXTT5=
EXTT6=
EXTT7=
EXTT8=
EXTT9=
EXTT10=
EXTT11=
EXTT12=
EXTT13=
EXTT14=
EXTT15=
EXTT16=
EXTT17=
EXTT18=
EXTT19=
EXTT20=
EXTT21=
EXTT22=
PLAYORDER=
